# xmcd
#
# Track frame offsets:
#	150
#	15562
#	29194
#	43002
#	68802
#	91530
#	108684
#	125661
#	139714
#	157158
#	174638
#	190589
#	209951
#	225544
#	237810
#	253660
#	269079
#	282842
#	299264
#	316507
#
# Disc length: 4429 seconds
#
# Revision: 3
# Processed by: cddbd v1.5.2PL0 Copyright (c) Steve Scherf et al.
# Submitted via: audiograbber 1.83.01
#
DISCID=2c114b14
DTITLE=Various Artist - 100 Hits Collection - 70s - CD 4
DYEAR=1900
DGENRE=Oldies
TTITLE0=Clout - Under Fire
TTITLE1=Michael Zager Band - Lets All Chant
TTITLE2=Walter Murphy and The Big Apple Band - A Fifth Of Beethoven
TTITLE3=Cissy Houston - Think It Over
TTITLE4=Janis Ian - Fly Too High
TTITLE5=Carte Blanche - Get Up, Get On Your Feet
TTITLE6=Gibson Brothers - Non Stop Dance
TTITLE7=5000 Volts - Dr Kiss Kiss
TTITLE8=Benelux - Switch
TTITLE9=Golden Earring - Bombay
TTITLE10=Clout - You've Got All Of Me
TTITLE11=Mike Berry - Don't Be Cruel
TTITLE12=Polly Brown - Up In A Puff Smoke
TTITLE13=The Cuff Links - When Julie Comes Around
TTITLE14=Ray Stevens - Everything Is Beautiful
TTITLE15=Don Fardon - Indian Reservation
TTITLE16=Magic Lanterns - One Night Stand
TTITLE17=Slik - Forever And Ever
TTITLE18=Thunder Things - Central Park Arrest
TTITLE19=Joe Tex - Ain't Gonna Bump No More (With No Big Fat Woman)
EXTD=
EXTT0=
EXTT1=
EXTT2=
EXTT3=
EXTT4=
EXTT5=
EXTT6=
EXTT7=
EXTT8=
EXTT9=
EXTT10=
EXTT11=
EXTT12=
EXTT13=
EXTT14=
EXTT15=
EXTT16=
EXTT17=
EXTT18=
EXTT19=
PLAYORDER=
